<mxfile host="Electron" agent="Mozilla/5.0 (Macintosh; Intel Mac OS X 10_15_7) AppleWebKit/537.36 (KHTML, like Gecko) draw.io/24.7.17 Chrome/128.0.6613.36 Electron/32.0.1 Safari/537.36" version="24.7.17">
  <diagram id="F1lny11qeg88ADVK70qy" name="Theory - 1">
    <mxGraphModel dx="2334" dy="854" grid="1" gridSize="10" guides="1" tooltips="1" connect="1" arrows="1" fold="1" page="1" pageScale="1" pageWidth="900" pageHeight="1600" math="0" shadow="0">
      <root>
        <mxCell id="0" />
        <object label="Base" id="1">
          <mxCell parent="0" />
        </object>
        <mxCell id="nzwxFwxQ3F7PPKd9Uy6t-1" value="&lt;font style=&quot;font-size: 14px;&quot;&gt;Attacker Contract&lt;/font&gt;" style="swimlane;html=1;childLayout=stackLayout;startSize=20;rounded=0;shadow=0;labelBackgroundColor=none;strokeWidth=1;fontFamily=Verdana;fontSize=14;align=center;swimlaneFillColor=none;numbered=0;" parent="1" vertex="1">
          <mxGeometry x="-50" y="70" width="310" height="210" as="geometry">
            <mxRectangle x="20" y="20" width="60" height="20" as="alternateBounds" />
          </mxGeometry>
        </mxCell>
        <mxCell id="nzwxFwxQ3F7PPKd9Uy6t-16" style="edgeStyle=orthogonalEdgeStyle;rounded=1;html=1;labelBackgroundColor=none;startArrow=none;startFill=0;startSize=5;endArrow=classicThin;endFill=1;endSize=5;jettySize=auto;orthogonalLoop=1;strokeWidth=1;fontFamily=Verdana;fontSize=8" parent="nzwxFwxQ3F7PPKd9Uy6t-1" edge="1">
          <mxGeometry relative="1" as="geometry">
            <Array as="points">
              <mxPoint x="660" y="610" />
              <mxPoint x="660" y="550" />
              <mxPoint x="400" y="550" />
            </Array>
            <mxPoint x="690" y="610" as="sourcePoint" />
          </mxGeometry>
        </mxCell>
        <mxCell id="nzwxFwxQ3F7PPKd9Uy6t-17" style="edgeStyle=orthogonalEdgeStyle;rounded=1;html=1;labelBackgroundColor=none;startArrow=none;startFill=0;startSize=5;endArrow=classicThin;endFill=1;endSize=5;jettySize=auto;orthogonalLoop=1;strokeColor=#000000;strokeWidth=1;fontFamily=Verdana;fontSize=8;fontColor=#000000;" parent="nzwxFwxQ3F7PPKd9Uy6t-1" edge="1">
          <mxGeometry relative="1" as="geometry">
            <mxPoint x="690" y="610" as="sourcePoint" />
          </mxGeometry>
        </mxCell>
        <mxCell id="nzwxFwxQ3F7PPKd9Uy6t-19" style="edgeStyle=orthogonalEdgeStyle;rounded=1;html=1;labelBackgroundColor=none;startArrow=none;startFill=0;startSize=5;endArrow=classicThin;endFill=1;endSize=5;jettySize=auto;orthogonalLoop=1;strokeWidth=1;fontFamily=Verdana;fontSize=8" parent="nzwxFwxQ3F7PPKd9Uy6t-1" edge="1">
          <mxGeometry relative="1" as="geometry">
            <Array as="points">
              <mxPoint x="80" y="650" />
              <mxPoint x="490" y="650" />
              <mxPoint x="490" y="610" />
            </Array>
            <mxPoint x="530" y="610" as="targetPoint" />
          </mxGeometry>
        </mxCell>
        <mxCell id="nzwxFwxQ3F7PPKd9Uy6t-20" style="edgeStyle=orthogonalEdgeStyle;rounded=1;html=1;labelBackgroundColor=none;startArrow=none;startFill=0;startSize=5;endArrow=classicThin;endFill=1;endSize=5;jettySize=auto;orthogonalLoop=1;strokeWidth=1;fontFamily=Verdana;fontSize=8" parent="nzwxFwxQ3F7PPKd9Uy6t-1" edge="1">
          <mxGeometry relative="1" as="geometry">
            <mxPoint x="530" y="610" as="targetPoint" />
          </mxGeometry>
        </mxCell>
        <mxCell id="CfqDg3g44KLY0-B5oiju-57" value="Balance" style="swimlane;html=1;startSize=20;fillColor=#F8CECC;strokeColor=#b85450;fillStyle=solid;swimlaneFillColor=#F8CECC;numbered=0;fontSize=14;" parent="nzwxFwxQ3F7PPKd9Uy6t-1" vertex="1">
          <mxGeometry y="20" width="140" height="190" as="geometry" />
        </mxCell>
        <mxCell id="CfqDg3g44KLY0-B5oiju-59" value="1 eth" style="rounded=0;whiteSpace=wrap;html=1;labelBorderColor=none;strokeColor=default;strokeWidth=1;fontSize=14;aspect=fixed;" parent="CfqDg3g44KLY0-B5oiju-57" vertex="1">
          <mxGeometry x="38.75" y="37.50999999999999" width="62.5" height="62.5" as="geometry" />
        </mxCell>
        <mxCell id="nzwxFwxQ3F7PPKd9Uy6t-2" value="Logic" style="swimlane;html=1;startSize=20;fillColor=#F8CECC;strokeColor=#b85450;fillStyle=solid;swimlaneFillColor=#F8CECC;numbered=0;fontSize=14;spacing=2;" parent="nzwxFwxQ3F7PPKd9Uy6t-1" vertex="1">
          <mxGeometry x="140" y="20" width="170" height="190" as="geometry" />
        </mxCell>
        <mxCell id="KpImWnztJVB6oVCbE7Il-58" value="&lt;font style=&quot;font-size: 14px;&quot;&gt;Call deposit() to transfer 1 eth to Vulnerable Contract&lt;/font&gt;" style="rounded=1;whiteSpace=wrap;html=1;shadow=0;labelBackgroundColor=none;strokeWidth=1;fontFamily=Verdana;fontSize=14;align=center;numbered=0;spacingTop=0;spacing=2;" parent="nzwxFwxQ3F7PPKd9Uy6t-2" vertex="1">
          <mxGeometry x="16" y="28.13" width="144" height="81.25" as="geometry" />
        </mxCell>
        <mxCell id="CJRN6A6oH6of_oJumCdY-68" value="&lt;font style=&quot;font-size: 14px;&quot;&gt;Vulnerable Contract&lt;/font&gt;" style="swimlane;html=1;childLayout=stackLayout;startSize=20;rounded=0;shadow=0;labelBackgroundColor=none;strokeWidth=1;fontFamily=Verdana;fontSize=14;align=center;swimlaneFillColor=#FFE6CC;" parent="1" vertex="1">
          <mxGeometry x="280" y="300" width="530" height="360" as="geometry">
            <mxRectangle x="20" y="20" width="60" height="20" as="alternateBounds" />
          </mxGeometry>
        </mxCell>
        <mxCell id="CJRN6A6oH6of_oJumCdY-71" style="edgeStyle=orthogonalEdgeStyle;rounded=1;html=1;labelBackgroundColor=none;startArrow=none;startFill=0;startSize=5;endArrow=classicThin;endFill=1;endSize=5;jettySize=auto;orthogonalLoop=1;strokeWidth=1;fontFamily=Verdana;fontSize=8" parent="CJRN6A6oH6of_oJumCdY-68" edge="1">
          <mxGeometry relative="1" as="geometry">
            <Array as="points">
              <mxPoint x="660" y="610" />
              <mxPoint x="660" y="550" />
              <mxPoint x="400" y="550" />
            </Array>
            <mxPoint x="690" y="610" as="sourcePoint" />
          </mxGeometry>
        </mxCell>
        <mxCell id="CJRN6A6oH6of_oJumCdY-72" style="edgeStyle=orthogonalEdgeStyle;rounded=1;html=1;labelBackgroundColor=none;startArrow=none;startFill=0;startSize=5;endArrow=classicThin;endFill=1;endSize=5;jettySize=auto;orthogonalLoop=1;strokeColor=#000000;strokeWidth=1;fontFamily=Verdana;fontSize=8;fontColor=#000000;" parent="CJRN6A6oH6of_oJumCdY-68" edge="1">
          <mxGeometry relative="1" as="geometry">
            <mxPoint x="690" y="610" as="sourcePoint" />
          </mxGeometry>
        </mxCell>
        <mxCell id="CJRN6A6oH6of_oJumCdY-73" style="edgeStyle=orthogonalEdgeStyle;rounded=1;html=1;labelBackgroundColor=none;startArrow=none;startFill=0;startSize=5;endArrow=classicThin;endFill=1;endSize=5;jettySize=auto;orthogonalLoop=1;strokeWidth=1;fontFamily=Verdana;fontSize=8" parent="CJRN6A6oH6of_oJumCdY-68" edge="1">
          <mxGeometry relative="1" as="geometry">
            <Array as="points">
              <mxPoint x="80" y="650" />
              <mxPoint x="490" y="650" />
              <mxPoint x="490" y="610" />
            </Array>
            <mxPoint x="530" y="610" as="targetPoint" />
          </mxGeometry>
        </mxCell>
        <mxCell id="CJRN6A6oH6of_oJumCdY-74" style="edgeStyle=orthogonalEdgeStyle;rounded=1;html=1;labelBackgroundColor=none;startArrow=none;startFill=0;startSize=5;endArrow=classicThin;endFill=1;endSize=5;jettySize=auto;orthogonalLoop=1;strokeWidth=1;fontFamily=Verdana;fontSize=8" parent="CJRN6A6oH6of_oJumCdY-68" edge="1">
          <mxGeometry relative="1" as="geometry">
            <mxPoint x="530" y="610" as="targetPoint" />
          </mxGeometry>
        </mxCell>
        <mxCell id="CJRN6A6oH6of_oJumCdY-75" value="&lt;font style=&quot;font-size: 14px;&quot;&gt;Logic&lt;/font&gt;" style="swimlane;html=1;startSize=20;fillColor=#FFE6CC;strokeColor=#d79b00;fontSize=12;" parent="CJRN6A6oH6of_oJumCdY-68" vertex="1">
          <mxGeometry y="20" width="240" height="340" as="geometry" />
        </mxCell>
        <mxCell id="P4k7pQ2bikWhxSyixqC_-39" value="&lt;font style=&quot;font-size: 14px;&quot;&gt;withdrawAll()&lt;/font&gt;" style="swimlane;whiteSpace=wrap;html=1;labelBackgroundColor=none;" parent="CJRN6A6oH6of_oJumCdY-75" vertex="1">
          <mxGeometry x="20" y="30.5" width="200" height="299" as="geometry" />
        </mxCell>
        <mxCell id="P4k7pQ2bikWhxSyixqC_-41" value="&lt;font style=&quot;font-size: 14px;&quot;&gt;Does Attacker Contract have a positive balance?&lt;/font&gt;" style="rounded=1;whiteSpace=wrap;html=1;shadow=0;labelBackgroundColor=none;strokeWidth=1;fontFamily=Verdana;fontSize=14;align=center;numbered=0;" parent="P4k7pQ2bikWhxSyixqC_-39" vertex="1">
          <mxGeometry x="25" y="36.5" width="150" height="65" as="geometry" />
        </mxCell>
        <mxCell id="P4k7pQ2bikWhxSyixqC_-42" value="&lt;font style=&quot;font-size: 14px;&quot;&gt;Transfer 1 eth to Attacker Contract&lt;/font&gt;" style="rounded=1;whiteSpace=wrap;html=1;shadow=0;labelBackgroundColor=none;strokeWidth=1;fontFamily=Verdana;fontSize=14;align=center;numbered=0;" parent="P4k7pQ2bikWhxSyixqC_-39" vertex="1">
          <mxGeometry x="25" y="214" width="150" height="65" as="geometry" />
        </mxCell>
        <mxCell id="P4k7pQ2bikWhxSyixqC_-43" value="" style="edgeStyle=orthogonalEdgeStyle;rounded=0;orthogonalLoop=1;jettySize=auto;html=1;strokeWidth=2;fontSize=14;exitX=0.5;exitY=1;exitDx=0;exitDy=0;entryX=0.5;entryY=0;entryDx=0;entryDy=0;strokeColor=#ff0000;" parent="P4k7pQ2bikWhxSyixqC_-39" source="P4k7pQ2bikWhxSyixqC_-44" target="P4k7pQ2bikWhxSyixqC_-42" edge="1">
          <mxGeometry relative="1" as="geometry">
            <mxPoint x="100" y="144" as="sourcePoint" />
            <mxPoint x="100" y="204" as="targetPoint" />
          </mxGeometry>
        </mxCell>
        <mxCell id="P4k7pQ2bikWhxSyixqC_-44" value="True" style="strokeWidth=2;html=1;shape=mxgraph.flowchart.decision;whiteSpace=wrap;strokeColor=#ff0000;" parent="P4k7pQ2bikWhxSyixqC_-39" vertex="1">
          <mxGeometry x="73" y="134" width="54" height="50" as="geometry" />
        </mxCell>
        <mxCell id="P4k7pQ2bikWhxSyixqC_-45" value="" style="edgeStyle=orthogonalEdgeStyle;rounded=0;orthogonalLoop=1;jettySize=auto;html=1;strokeWidth=2;fontSize=14;exitX=0.5;exitY=1;exitDx=0;exitDy=0;entryX=0.5;entryY=0;entryDx=0;entryDy=0;strokeColor=#ff0000;" parent="P4k7pQ2bikWhxSyixqC_-39" source="P4k7pQ2bikWhxSyixqC_-41" target="P4k7pQ2bikWhxSyixqC_-44" edge="1">
          <mxGeometry relative="1" as="geometry">
            <mxPoint x="370" y="432" as="sourcePoint" />
            <mxPoint x="370" y="524" as="targetPoint" />
          </mxGeometry>
        </mxCell>
        <mxCell id="k5vkJicnoMGBYDwvxUp1-2" value="3b" style="text;html=1;resizable=0;autosize=1;align=center;verticalAlign=middle;points=[];fillColor=#ffff88;strokeColor=default;rounded=0;labelBackgroundColor=#FFFF00;labelBorderColor=none;fontSize=14;spacing=2;labelPadding=0;perimeterSpacing=2;" parent="P4k7pQ2bikWhxSyixqC_-39" vertex="1">
          <mxGeometry y="29.5" width="40" height="30" as="geometry" />
        </mxCell>
        <mxCell id="CfqDg3g44KLY0-B5oiju-12" value="4a" style="text;html=1;resizable=0;autosize=1;align=center;verticalAlign=middle;points=[];fillColor=#ffff88;strokeColor=default;rounded=0;labelBackgroundColor=#FFFF00;labelBorderColor=none;fontSize=14;spacing=2;labelPadding=0;perimeterSpacing=2;" parent="P4k7pQ2bikWhxSyixqC_-39" vertex="1">
          <mxGeometry y="199.5" width="40" height="30" as="geometry" />
        </mxCell>
        <mxCell id="CJRN6A6oH6of_oJumCdY-193" value="State" style="swimlane;html=1;startSize=20;fillColor=#FFE6CC;strokeColor=#d79b00;fontSize=14;" parent="CJRN6A6oH6of_oJumCdY-68" vertex="1">
          <mxGeometry x="240" y="20" width="290" height="340" as="geometry" />
        </mxCell>
        <mxCell id="ML-0f9Pnc7A3zYeYv5lM-28" value="Balances" style="shape=table;startSize=30;container=1;collapsible=0;childLayout=tableLayout;fontStyle=1;align=center;fillStyle=solid;fontSize=14;strokeWidth=1;numbered=0;labelBorderColor=none;" parent="CJRN6A6oH6of_oJumCdY-193" vertex="1">
          <mxGeometry x="20" y="50" width="250" height="106" as="geometry" />
        </mxCell>
        <mxCell id="ML-0f9Pnc7A3zYeYv5lM-29" value="" style="shape=tableRow;horizontal=0;startSize=0;swimlaneHead=0;swimlaneBody=0;top=0;left=0;bottom=0;right=0;collapsible=0;dropTarget=0;fillColor=none;points=[[0,0.5],[1,0.5]];portConstraint=eastwest;fillStyle=solid;fontSize=14;" parent="ML-0f9Pnc7A3zYeYv5lM-28" vertex="1">
          <mxGeometry y="30" width="250" height="30" as="geometry" />
        </mxCell>
        <mxCell id="ML-0f9Pnc7A3zYeYv5lM-30" value="Account" style="shape=partialRectangle;html=1;whiteSpace=wrap;connectable=0;top=1;left=1;bottom=1;right=1;overflow=hidden;fillStyle=solid;fontSize=14;strokeWidth=1;perimeterSpacing=2;labelBorderColor=none;fillColor=default;gradientColor=none;strokeColor=default;autosize=1;enumerate=0;enumerateValue=3;container=0;" parent="ML-0f9Pnc7A3zYeYv5lM-29" vertex="1">
          <mxGeometry width="122" height="30" as="geometry">
            <mxRectangle width="122" height="30" as="alternateBounds" />
          </mxGeometry>
        </mxCell>
        <mxCell id="ML-0f9Pnc7A3zYeYv5lM-31" value="Balance" style="shape=partialRectangle;html=1;whiteSpace=wrap;connectable=0;top=1;left=1;bottom=1;right=1;overflow=hidden;fillStyle=solid;fontSize=14;strokeWidth=1;" parent="ML-0f9Pnc7A3zYeYv5lM-29" vertex="1">
          <mxGeometry x="122" width="128" height="30" as="geometry">
            <mxRectangle width="128" height="30" as="alternateBounds" />
          </mxGeometry>
        </mxCell>
        <mxCell id="ML-0f9Pnc7A3zYeYv5lM-32" value="" style="shape=tableRow;horizontal=0;startSize=0;swimlaneHead=0;swimlaneBody=0;top=0;left=0;bottom=0;right=0;collapsible=0;dropTarget=0;fillColor=none;points=[[0,0.5],[1,0.5]];portConstraint=eastwest;fillStyle=solid;fontSize=14;" parent="ML-0f9Pnc7A3zYeYv5lM-28" vertex="1">
          <mxGeometry y="60" width="250" height="46" as="geometry" />
        </mxCell>
        <mxCell id="ML-0f9Pnc7A3zYeYv5lM-33" value="Attacker Contract" style="shape=partialRectangle;html=1;whiteSpace=wrap;connectable=0;top=1;left=1;bottom=1;right=1;overflow=hidden;fillStyle=solid;fontSize=14;strokeWidth=1;fillColor=#fad9d5;strokeColor=default;" parent="ML-0f9Pnc7A3zYeYv5lM-32" vertex="1">
          <mxGeometry width="122" height="46" as="geometry">
            <mxRectangle width="122" height="46" as="alternateBounds" />
          </mxGeometry>
        </mxCell>
        <mxCell id="ML-0f9Pnc7A3zYeYv5lM-34" value="1 eth" style="shape=partialRectangle;html=1;whiteSpace=wrap;connectable=0;top=1;left=1;bottom=1;right=1;overflow=hidden;fillStyle=solid;fontSize=14;strokeWidth=1;fillColor=#fad9d5;strokeColor=default;" parent="ML-0f9Pnc7A3zYeYv5lM-32" vertex="1">
          <mxGeometry x="122" width="128" height="46" as="geometry">
            <mxRectangle width="128" height="46" as="alternateBounds" />
          </mxGeometry>
        </mxCell>
        <mxCell id="ML-0f9Pnc7A3zYeYv5lM-35" value="" style="shape=waypoint;sketch=0;size=6;pointerEvents=1;points=[];fillColor=default;resizable=0;rotatable=0;perimeter=centerPerimeter;snapToPoint=1;fontSize=14;fontFamily=Verdana;rounded=1;shadow=0;labelBackgroundColor=none;strokeWidth=1;" parent="ML-0f9Pnc7A3zYeYv5lM-32" vertex="1">
          <mxGeometry x="250" height="46" as="geometry">
            <mxRectangle width="NaN" height="46" as="alternateBounds" />
          </mxGeometry>
        </mxCell>
        <mxCell id="CJRN6A6oH6of_oJumCdY-162" style="edgeStyle=orthogonalEdgeStyle;rounded=0;orthogonalLoop=1;jettySize=auto;html=1;exitX=1;exitY=0.5;exitDx=0;exitDy=0;strokeWidth=2;fontSize=14;startArrow=classic;startFill=1;strokeColor=#000000;entryX=0;entryY=0.5;entryDx=0;entryDy=0;" parent="CJRN6A6oH6of_oJumCdY-68" source="P4k7pQ2bikWhxSyixqC_-41" target="ML-0f9Pnc7A3zYeYv5lM-32" edge="1">
          <mxGeometry relative="1" as="geometry">
            <mxPoint x="230" y="123" as="targetPoint" />
            <mxPoint x="180" y="86" as="sourcePoint" />
          </mxGeometry>
        </mxCell>
        <mxCell id="CJRN6A6oH6of_oJumCdY-154" value="&lt;p style=&quot;line-height: 100%;&quot;&gt;&lt;br&gt;&lt;/p&gt;" style="strokeWidth=2;html=1;shape=mxgraph.flowchart.annotation_2;align=right;labelPosition=left;pointerEvents=1;labelBackgroundColor=#FFFF00;fontSize=14;verticalLabelPosition=middle;verticalAlign=middle;horizontal=1;spacing=0;labelPadding=0;snapToPoint=0;perimeter=rectanglePerimeter;container=0;" parent="1" vertex="1">
          <mxGeometry x="-110" y="70" width="50" height="210" as="geometry" />
        </mxCell>
        <mxCell id="ML-0f9Pnc7A3zYeYv5lM-11" value="&lt;p style=&quot;line-height: 0%;&quot;&gt;&lt;br&gt;&lt;/p&gt;" style="strokeWidth=2;html=1;shape=mxgraph.flowchart.annotation_2;align=right;labelPosition=left;pointerEvents=1;labelBackgroundColor=#FFFF00;fontSize=14;verticalLabelPosition=middle;verticalAlign=middle;horizontal=1;spacing=0;strokeColor=default;labelPadding=5;snapToPoint=0;perimeter=rectanglePerimeter;" parent="1" vertex="1">
          <mxGeometry x="-110" y="300" width="50" height="360" as="geometry" />
        </mxCell>
        <mxCell id="ML-0f9Pnc7A3zYeYv5lM-82" value="&lt;p style=&quot;line-height: 0%;&quot;&gt;&lt;br&gt;&lt;/p&gt;" style="strokeWidth=2;html=1;shape=mxgraph.flowchart.annotation_2;align=right;labelPosition=left;pointerEvents=1;labelBackgroundColor=#FFFF00;fontSize=14;verticalLabelPosition=middle;verticalAlign=middle;horizontal=1;spacing=0;strokeColor=default;labelPadding=5;snapToPoint=0;perimeter=rectanglePerimeter;" parent="1" vertex="1">
          <mxGeometry x="-110" y="681" width="50" height="210" as="geometry" />
        </mxCell>
        <mxCell id="CfqDg3g44KLY0-B5oiju-15" value="&lt;font style=&quot;font-size: 16px;&quot;&gt;Seeding Phase&lt;/font&gt;" style="text;html=1;resizable=0;autosize=1;align=center;verticalAlign=middle;points=[];fillColor=#ffff88;strokeColor=default;rounded=0;labelBackgroundColor=#FFFF00;labelBorderColor=none;fontSize=14;spacing=0;labelPadding=0;perimeterSpacing=2;" parent="1" vertex="1">
          <mxGeometry x="-240" y="155" width="130" height="30" as="geometry" />
        </mxCell>
        <mxCell id="CfqDg3g44KLY0-B5oiju-16" value="&lt;font style=&quot;font-size: 16px;&quot;&gt;Transfer Phase&lt;/font&gt;" style="text;html=1;resizable=0;autosize=1;align=center;verticalAlign=middle;points=[];fillColor=#ffff88;strokeColor=default;rounded=0;labelBackgroundColor=#FFFF00;labelBorderColor=none;fontSize=14;spacing=0;labelPadding=0;perimeterSpacing=2;" parent="1" vertex="1">
          <mxGeometry x="-240" y="465" width="130" height="30" as="geometry" />
        </mxCell>
        <mxCell id="CfqDg3g44KLY0-B5oiju-17" value="Deduction Phase" style="text;html=1;resizable=0;autosize=1;align=center;verticalAlign=middle;points=[];fillColor=#ffff88;strokeColor=default;rounded=0;labelBackgroundColor=#FFFF00;labelBorderColor=none;fontSize=16;spacing=0;labelPadding=0;perimeterSpacing=2;" parent="1" vertex="1">
          <mxGeometry x="-250" y="766" width="140" height="30" as="geometry" />
        </mxCell>
        <mxCell id="CJRN6A6oH6of_oJumCdY-55" value="&lt;font style=&quot;font-size: 14px;&quot;&gt;Attacker Contract&lt;/font&gt;" style="swimlane;html=1;childLayout=stackLayout;startSize=20;rounded=0;shadow=0;labelBackgroundColor=none;strokeWidth=1;fontFamily=Verdana;fontSize=14;align=center;swimlaneFillColor=none;numbered=0;" parent="1" vertex="1">
          <mxGeometry x="-50" y="300" width="310" height="360" as="geometry">
            <mxRectangle x="20" y="20" width="60" height="20" as="alternateBounds" />
          </mxGeometry>
        </mxCell>
        <mxCell id="CJRN6A6oH6of_oJumCdY-56" style="edgeStyle=orthogonalEdgeStyle;rounded=1;html=1;labelBackgroundColor=none;startArrow=none;startFill=0;startSize=5;endArrow=classicThin;endFill=1;endSize=5;jettySize=auto;orthogonalLoop=1;strokeWidth=1;fontFamily=Verdana;fontSize=14;" parent="CJRN6A6oH6of_oJumCdY-55" edge="1">
          <mxGeometry relative="1" as="geometry">
            <mxPoint x="150" y="133.4999999999999" as="sourcePoint" />
            <mxPoint x="190" y="118.59999999999991" as="targetPoint" />
          </mxGeometry>
        </mxCell>
        <mxCell id="CJRN6A6oH6of_oJumCdY-57" value="1 ethLib" style="edgeLabel;html=1;align=center;verticalAlign=middle;resizable=0;points=[];fontSize=14;" parent="CJRN6A6oH6of_oJumCdY-56" vertex="1" connectable="0">
          <mxGeometry x="-0.3667" y="1" relative="1" as="geometry">
            <mxPoint as="offset" />
          </mxGeometry>
        </mxCell>
        <mxCell id="CJRN6A6oH6of_oJumCdY-58" value="Balance" style="swimlane;html=1;startSize=20;fillColor=#F8CECC;strokeColor=#b85450;fillStyle=solid;swimlaneFillColor=#F8CECC;numbered=0;fontSize=14;" parent="CJRN6A6oH6of_oJumCdY-55" vertex="1">
          <mxGeometry y="20" width="140" height="340" as="geometry" />
        </mxCell>
        <mxCell id="CfqDg3g44KLY0-B5oiju-1" value="0 eth" style="rounded=0;whiteSpace=wrap;html=1;labelBorderColor=none;strokeColor=default;strokeWidth=1;fontSize=14;aspect=fixed;" parent="CJRN6A6oH6of_oJumCdY-58" vertex="1">
          <mxGeometry x="38.75" y="40" width="62.5" height="62.5" as="geometry" />
        </mxCell>
        <mxCell id="CfqDg3g44KLY0-B5oiju-2" value="+ 1 eth" style="rounded=0;whiteSpace=wrap;html=1;labelBorderColor=none;strokeColor=default;strokeWidth=1;fontSize=14;aspect=fixed;" parent="CJRN6A6oH6of_oJumCdY-58" vertex="1">
          <mxGeometry x="38.75" y="211.25" width="62.5" height="62.5" as="geometry" />
        </mxCell>
        <mxCell id="CfqDg3g44KLY0-B5oiju-14" value="2" style="text;html=1;resizable=0;autosize=1;align=center;verticalAlign=middle;points=[];fillColor=#ffff88;strokeColor=default;rounded=0;labelBackgroundColor=#FFFF00;labelBorderColor=none;fontSize=14;spacing=2;labelPadding=0;perimeterSpacing=2;" parent="CJRN6A6oH6of_oJumCdY-58" vertex="1">
          <mxGeometry x="20" y="20" width="30" height="30" as="geometry" />
        </mxCell>
        <mxCell id="CJRN6A6oH6of_oJumCdY-62" value="Logic" style="swimlane;html=1;startSize=20;fillColor=#F8CECC;strokeColor=#b85450;fillStyle=solid;swimlaneFillColor=#F8CECC;numbered=0;fontSize=14;" parent="CJRN6A6oH6of_oJumCdY-55" vertex="1">
          <mxGeometry x="140" y="20" width="170" height="340" as="geometry" />
        </mxCell>
        <mxCell id="CJRN6A6oH6of_oJumCdY-63" value="&lt;div&gt;&lt;span style=&quot;background-color: initial;&quot;&gt;Call withdrawAll()&amp;nbsp;&amp;nbsp;&lt;/span&gt;&lt;br&gt;&lt;/div&gt;&lt;div&gt;&lt;font style=&quot;font-size: 14px;&quot;&gt;to withdraw 1 eth from Vulnerable Contract&lt;/font&gt;&lt;/div&gt;" style="rounded=1;whiteSpace=wrap;html=1;shadow=0;labelBackgroundColor=none;strokeWidth=1;fontFamily=Verdana;fontSize=14;align=center;numbered=0;" parent="CJRN6A6oH6of_oJumCdY-62" vertex="1">
          <mxGeometry x="15" y="55" width="140" height="90" as="geometry" />
        </mxCell>
        <mxCell id="CJRN6A6oH6of_oJumCdY-110" value="&lt;div&gt;&lt;span style=&quot;background-color: initial;&quot;&gt;&lt;br&gt;&lt;/span&gt;&lt;/div&gt;&lt;div&gt;&lt;span style=&quot;background-color: initial;&quot;&gt;Receive 1 eth from Vulnerable Contract&lt;/span&gt;&lt;br&gt;&lt;/div&gt;" style="rounded=1;whiteSpace=wrap;html=1;shadow=0;labelBackgroundColor=none;strokeWidth=1;fontFamily=Verdana;fontSize=14;align=center;numbered=0;" parent="CJRN6A6oH6of_oJumCdY-62" vertex="1">
          <mxGeometry x="15" y="205" width="140" height="75" as="geometry" />
        </mxCell>
        <mxCell id="CfqDg3g44KLY0-B5oiju-11" value="4b" style="text;html=1;resizable=0;autosize=1;align=center;verticalAlign=middle;points=[];fillColor=#ffff88;strokeColor=default;rounded=0;labelBackgroundColor=#FFFF00;labelBorderColor=none;fontSize=14;spacing=2;labelPadding=0;perimeterSpacing=2;" parent="CJRN6A6oH6of_oJumCdY-62" vertex="1">
          <mxGeometry x="-10" y="190" width="40" height="30" as="geometry" />
        </mxCell>
        <mxCell id="CfqDg3g44KLY0-B5oiju-60" value="5" style="text;html=1;resizable=0;autosize=1;align=center;verticalAlign=middle;points=[];fillColor=#ffff88;strokeColor=default;rounded=0;labelBackgroundColor=#FFFF00;labelBorderColor=none;fontSize=14;spacing=2;labelPadding=0;perimeterSpacing=2;" parent="CJRN6A6oH6of_oJumCdY-62" vertex="1">
          <mxGeometry x="90" y="160" width="30" height="30" as="geometry" />
        </mxCell>
        <mxCell id="CfqDg3g44KLY0-B5oiju-13" value="3a" style="text;html=1;resizable=0;autosize=1;align=center;verticalAlign=middle;points=[];fillColor=#ffff88;strokeColor=default;rounded=0;labelBackgroundColor=#FFFF00;labelBorderColor=none;fontSize=14;spacing=2;labelPadding=0;perimeterSpacing=2;" parent="CJRN6A6oH6of_oJumCdY-62" vertex="1">
          <mxGeometry x="-10" y="30" width="40" height="30" as="geometry" />
        </mxCell>
        <mxCell id="k5vkJicnoMGBYDwvxUp1-3" value="" style="edgeStyle=orthogonalEdgeStyle;rounded=0;orthogonalLoop=1;jettySize=auto;html=1;fontSize=14;strokeWidth=2;exitX=0.5;exitY=0;exitDx=0;exitDy=0;entryX=0.5;entryY=1;entryDx=0;entryDy=0;strokeColor=#ff0000;shadow=0;sketch=0;" parent="CJRN6A6oH6of_oJumCdY-62" source="CJRN6A6oH6of_oJumCdY-110" target="CJRN6A6oH6of_oJumCdY-63" edge="1">
          <mxGeometry relative="1" as="geometry">
            <mxPoint x="230" y="253" as="sourcePoint" />
            <mxPoint x="165" y="253" as="targetPoint" />
          </mxGeometry>
        </mxCell>
        <mxCell id="CJRN6A6oH6of_oJumCdY-64" style="edgeStyle=orthogonalEdgeStyle;rounded=1;html=1;labelBackgroundColor=none;startArrow=none;startFill=0;startSize=5;endArrow=classicThin;endFill=1;endSize=5;jettySize=auto;orthogonalLoop=1;strokeWidth=1;fontFamily=Verdana;fontSize=8" parent="CJRN6A6oH6of_oJumCdY-55" edge="1">
          <mxGeometry relative="1" as="geometry">
            <Array as="points">
              <mxPoint x="660" y="610" />
              <mxPoint x="660" y="550" />
              <mxPoint x="400" y="550" />
            </Array>
            <mxPoint x="690" y="610" as="sourcePoint" />
          </mxGeometry>
        </mxCell>
        <mxCell id="CJRN6A6oH6of_oJumCdY-65" style="edgeStyle=orthogonalEdgeStyle;rounded=1;html=1;labelBackgroundColor=none;startArrow=none;startFill=0;startSize=5;endArrow=classicThin;endFill=1;endSize=5;jettySize=auto;orthogonalLoop=1;strokeColor=#000000;strokeWidth=1;fontFamily=Verdana;fontSize=8;fontColor=#000000;" parent="CJRN6A6oH6of_oJumCdY-55" edge="1">
          <mxGeometry relative="1" as="geometry">
            <mxPoint x="690" y="610" as="sourcePoint" />
          </mxGeometry>
        </mxCell>
        <mxCell id="CJRN6A6oH6of_oJumCdY-66" style="edgeStyle=orthogonalEdgeStyle;rounded=1;html=1;labelBackgroundColor=none;startArrow=none;startFill=0;startSize=5;endArrow=classicThin;endFill=1;endSize=5;jettySize=auto;orthogonalLoop=1;strokeWidth=1;fontFamily=Verdana;fontSize=8" parent="CJRN6A6oH6of_oJumCdY-55" edge="1">
          <mxGeometry relative="1" as="geometry">
            <Array as="points">
              <mxPoint x="80" y="650" />
              <mxPoint x="490" y="650" />
              <mxPoint x="490" y="610" />
            </Array>
            <mxPoint x="530" y="610" as="targetPoint" />
          </mxGeometry>
        </mxCell>
        <mxCell id="CJRN6A6oH6of_oJumCdY-67" style="edgeStyle=orthogonalEdgeStyle;rounded=1;html=1;labelBackgroundColor=none;startArrow=none;startFill=0;startSize=5;endArrow=classicThin;endFill=1;endSize=5;jettySize=auto;orthogonalLoop=1;strokeWidth=1;fontFamily=Verdana;fontSize=8" parent="CJRN6A6oH6of_oJumCdY-55" edge="1">
          <mxGeometry relative="1" as="geometry">
            <mxPoint x="530" y="610" as="targetPoint" />
          </mxGeometry>
        </mxCell>
        <mxCell id="uNGihFnRNZCweG5Byzgp-122" style="edgeStyle=orthogonalEdgeStyle;rounded=0;orthogonalLoop=1;jettySize=auto;html=1;entryX=1;entryY=0.5;entryDx=0;entryDy=0;strokeWidth=2;fontSize=14;strokeColor=#000000;exitX=0;exitY=0.5;exitDx=0;exitDy=0;" parent="CJRN6A6oH6of_oJumCdY-55" source="CJRN6A6oH6of_oJumCdY-110" target="CfqDg3g44KLY0-B5oiju-2" edge="1">
          <mxGeometry relative="1" as="geometry">
            <mxPoint x="112.5" y="242.5" as="targetPoint" />
            <mxPoint x="150" y="191" as="sourcePoint" />
          </mxGeometry>
        </mxCell>
        <mxCell id="uNGihFnRNZCweG5Byzgp-110" value="" style="edgeStyle=orthogonalEdgeStyle;rounded=0;orthogonalLoop=1;jettySize=auto;html=1;fontSize=14;strokeWidth=2;exitX=1;exitY=0.5;exitDx=0;exitDy=0;entryX=0;entryY=0.5;entryDx=0;entryDy=0;strokeColor=#ff0000;" parent="1" source="CJRN6A6oH6of_oJumCdY-63" target="P4k7pQ2bikWhxSyixqC_-41" edge="1">
          <mxGeometry relative="1" as="geometry">
            <mxPoint x="166" y="526" as="sourcePoint" />
            <mxPoint x="310" y="386" as="targetPoint" />
          </mxGeometry>
        </mxCell>
        <mxCell id="uNGihFnRNZCweG5Byzgp-113" value="" style="edgeStyle=orthogonalEdgeStyle;rounded=0;orthogonalLoop=1;jettySize=auto;html=1;fontSize=14;strokeWidth=2;exitX=0;exitY=0.5;exitDx=0;exitDy=0;entryX=1;entryY=0.5;entryDx=0;entryDy=0;strokeColor=#ff0000;shadow=0;sketch=0;" parent="1" source="P4k7pQ2bikWhxSyixqC_-42" target="CJRN6A6oH6of_oJumCdY-110" edge="1">
          <mxGeometry relative="1" as="geometry">
            <mxPoint x="310" y="563.5" as="sourcePoint" />
            <mxPoint x="395" y="531" as="targetPoint" />
          </mxGeometry>
        </mxCell>
        <mxCell id="P4k7pQ2bikWhxSyixqC_-78" value="&lt;font style=&quot;font-size: 14px;&quot;&gt;Vulnerable Contract&lt;/font&gt;" style="swimlane;html=1;childLayout=stackLayout;startSize=20;rounded=0;shadow=0;labelBackgroundColor=none;strokeWidth=1;fontFamily=Verdana;fontSize=14;align=center;swimlaneFillColor=#FFE6CC;" parent="1" vertex="1">
          <mxGeometry x="280" y="681" width="530" height="210" as="geometry">
            <mxRectangle x="20" y="20" width="60" height="20" as="alternateBounds" />
          </mxGeometry>
        </mxCell>
        <mxCell id="P4k7pQ2bikWhxSyixqC_-79" style="edgeStyle=orthogonalEdgeStyle;rounded=1;html=1;labelBackgroundColor=none;startArrow=none;startFill=0;startSize=5;endArrow=classicThin;endFill=1;endSize=5;jettySize=auto;orthogonalLoop=1;strokeWidth=1;fontFamily=Verdana;fontSize=8" parent="P4k7pQ2bikWhxSyixqC_-78" edge="1">
          <mxGeometry relative="1" as="geometry">
            <Array as="points">
              <mxPoint x="660" y="610" />
              <mxPoint x="660" y="550" />
              <mxPoint x="400" y="550" />
            </Array>
            <mxPoint x="690" y="610" as="sourcePoint" />
          </mxGeometry>
        </mxCell>
        <mxCell id="P4k7pQ2bikWhxSyixqC_-80" style="edgeStyle=orthogonalEdgeStyle;rounded=1;html=1;labelBackgroundColor=none;startArrow=none;startFill=0;startSize=5;endArrow=classicThin;endFill=1;endSize=5;jettySize=auto;orthogonalLoop=1;strokeColor=#000000;strokeWidth=1;fontFamily=Verdana;fontSize=8;fontColor=#000000;" parent="P4k7pQ2bikWhxSyixqC_-78" edge="1">
          <mxGeometry relative="1" as="geometry">
            <mxPoint x="690" y="610" as="sourcePoint" />
          </mxGeometry>
        </mxCell>
        <mxCell id="P4k7pQ2bikWhxSyixqC_-81" style="edgeStyle=orthogonalEdgeStyle;rounded=1;html=1;labelBackgroundColor=none;startArrow=none;startFill=0;startSize=5;endArrow=classicThin;endFill=1;endSize=5;jettySize=auto;orthogonalLoop=1;strokeWidth=1;fontFamily=Verdana;fontSize=8" parent="P4k7pQ2bikWhxSyixqC_-78" edge="1">
          <mxGeometry relative="1" as="geometry">
            <Array as="points">
              <mxPoint x="80" y="650" />
              <mxPoint x="490" y="650" />
              <mxPoint x="490" y="610" />
            </Array>
            <mxPoint x="530" y="610" as="targetPoint" />
          </mxGeometry>
        </mxCell>
        <mxCell id="P4k7pQ2bikWhxSyixqC_-83" value="&lt;font style=&quot;font-size: 14px;&quot;&gt;Logic&lt;/font&gt;" style="swimlane;html=1;startSize=20;fillColor=#FFE6CC;strokeColor=#d79b00;fontSize=12;whiteSpace=wrap;" parent="P4k7pQ2bikWhxSyixqC_-78" vertex="1">
          <mxGeometry y="20" width="240" height="190" as="geometry" />
        </mxCell>
        <mxCell id="P4k7pQ2bikWhxSyixqC_-76" value="withdrawAll()" style="swimlane;fontStyle=1;childLayout=stackLayout;horizontal=1;startSize=30;fillColor=#ffffff;horizontalStack=0;resizeParent=1;resizeParentMax=0;resizeLast=0;collapsible=0;marginBottom=0;swimlaneFillColor=#ffffff;fontSize=14;html=1;whiteSpace=wrap;" parent="P4k7pQ2bikWhxSyixqC_-83" vertex="1">
          <mxGeometry x="15" y="48" width="209" height="90" as="geometry" />
        </mxCell>
        <mxCell id="P4k7pQ2bikWhxSyixqC_-77" value="&lt;div&gt;&lt;font face=&quot;Verdana&quot;&gt;&lt;span style=&quot;font-size: 14px;&quot;&gt;Set&amp;nbsp;&lt;/span&gt;&lt;/font&gt;&lt;/div&gt;&lt;div&gt;&lt;span style=&quot;font-size: 14px; font-family: Verdana; background-color: initial;&quot;&gt;Attacker Contract balance&amp;nbsp;&lt;/span&gt;&lt;/div&gt;&lt;div&gt;&lt;span style=&quot;font-size: 14px; font-family: Verdana; background-color: initial;&quot;&gt;to 0&lt;/span&gt;&lt;/div&gt;" style="text;html=1;align=center;verticalAlign=middle;resizable=0;points=[];autosize=1;strokeColor=none;fillColor=none;" parent="P4k7pQ2bikWhxSyixqC_-76" vertex="1">
          <mxGeometry y="30" width="209" height="60" as="geometry" />
        </mxCell>
        <mxCell id="P4k7pQ2bikWhxSyixqC_-82" style="edgeStyle=orthogonalEdgeStyle;rounded=1;html=1;labelBackgroundColor=none;startArrow=none;startFill=0;startSize=5;endArrow=classicThin;endFill=1;endSize=5;jettySize=auto;orthogonalLoop=1;strokeWidth=1;fontFamily=Verdana;fontSize=8" parent="P4k7pQ2bikWhxSyixqC_-78" edge="1">
          <mxGeometry relative="1" as="geometry">
            <mxPoint x="530" y="610" as="targetPoint" />
          </mxGeometry>
        </mxCell>
        <mxCell id="P4k7pQ2bikWhxSyixqC_-92" value="State" style="swimlane;html=1;startSize=20;fillColor=#FFE6CC;strokeColor=#d79b00;fontSize=14;" parent="P4k7pQ2bikWhxSyixqC_-78" vertex="1">
          <mxGeometry x="240" y="20" width="290" height="190" as="geometry" />
        </mxCell>
        <mxCell id="P4k7pQ2bikWhxSyixqC_-93" value="Balances" style="shape=table;startSize=30;container=1;collapsible=0;childLayout=tableLayout;fontStyle=1;align=center;fillStyle=solid;fontSize=14;strokeWidth=1;numbered=0;labelBorderColor=none;" parent="P4k7pQ2bikWhxSyixqC_-92" vertex="1">
          <mxGeometry x="20" y="50" width="250" height="106" as="geometry" />
        </mxCell>
        <mxCell id="P4k7pQ2bikWhxSyixqC_-94" value="" style="shape=tableRow;horizontal=0;startSize=0;swimlaneHead=0;swimlaneBody=0;top=0;left=0;bottom=0;right=0;collapsible=0;dropTarget=0;fillColor=none;points=[[0,0.5],[1,0.5]];portConstraint=eastwest;fillStyle=solid;fontSize=14;" parent="P4k7pQ2bikWhxSyixqC_-93" vertex="1">
          <mxGeometry y="30" width="250" height="30" as="geometry" />
        </mxCell>
        <mxCell id="P4k7pQ2bikWhxSyixqC_-95" value="Account" style="shape=partialRectangle;html=1;whiteSpace=wrap;connectable=0;top=1;left=1;bottom=1;right=1;overflow=hidden;fillStyle=solid;fontSize=14;strokeWidth=1;perimeterSpacing=2;labelBorderColor=none;fillColor=default;gradientColor=none;strokeColor=default;autosize=1;enumerate=0;enumerateValue=3;container=0;" parent="P4k7pQ2bikWhxSyixqC_-94" vertex="1">
          <mxGeometry width="122" height="30" as="geometry">
            <mxRectangle width="122" height="30" as="alternateBounds" />
          </mxGeometry>
        </mxCell>
        <mxCell id="P4k7pQ2bikWhxSyixqC_-96" value="Balance" style="shape=partialRectangle;html=1;whiteSpace=wrap;connectable=0;top=1;left=1;bottom=1;right=1;overflow=hidden;fillStyle=solid;fontSize=14;strokeWidth=1;" parent="P4k7pQ2bikWhxSyixqC_-94" vertex="1">
          <mxGeometry x="122" width="128" height="30" as="geometry">
            <mxRectangle width="128" height="30" as="alternateBounds" />
          </mxGeometry>
        </mxCell>
        <mxCell id="P4k7pQ2bikWhxSyixqC_-97" value="" style="shape=tableRow;horizontal=0;startSize=0;swimlaneHead=0;swimlaneBody=0;top=0;left=0;bottom=0;right=0;collapsible=0;dropTarget=0;fillColor=none;points=[[0,0.5],[1,0.5]];portConstraint=eastwest;fillStyle=solid;fontSize=14;" parent="P4k7pQ2bikWhxSyixqC_-93" vertex="1">
          <mxGeometry y="60" width="250" height="46" as="geometry" />
        </mxCell>
        <mxCell id="P4k7pQ2bikWhxSyixqC_-98" value="Attacker Contract" style="shape=partialRectangle;html=1;whiteSpace=wrap;connectable=0;top=1;left=1;bottom=1;right=1;overflow=hidden;fillStyle=solid;fontSize=14;strokeWidth=1;fillColor=#fad9d5;strokeColor=default;" parent="P4k7pQ2bikWhxSyixqC_-97" vertex="1">
          <mxGeometry width="122" height="46" as="geometry">
            <mxRectangle width="122" height="46" as="alternateBounds" />
          </mxGeometry>
        </mxCell>
        <mxCell id="P4k7pQ2bikWhxSyixqC_-99" value="0 eth" style="shape=partialRectangle;html=1;whiteSpace=wrap;connectable=0;top=1;left=1;bottom=1;right=1;overflow=hidden;fillStyle=solid;fontSize=14;strokeWidth=1;fillColor=#fad9d5;strokeColor=default;" parent="P4k7pQ2bikWhxSyixqC_-97" vertex="1">
          <mxGeometry x="122" width="128" height="46" as="geometry">
            <mxRectangle width="128" height="46" as="alternateBounds" />
          </mxGeometry>
        </mxCell>
        <mxCell id="P4k7pQ2bikWhxSyixqC_-100" value="" style="shape=waypoint;sketch=0;size=6;pointerEvents=1;points=[];fillColor=default;resizable=0;rotatable=0;perimeter=centerPerimeter;snapToPoint=1;fontSize=14;fontFamily=Verdana;rounded=1;shadow=0;labelBackgroundColor=none;strokeWidth=1;" parent="P4k7pQ2bikWhxSyixqC_-97" vertex="1">
          <mxGeometry x="250" height="46" as="geometry">
            <mxRectangle width="NaN" height="46" as="alternateBounds" />
          </mxGeometry>
        </mxCell>
        <mxCell id="P4k7pQ2bikWhxSyixqC_-120" style="edgeStyle=orthogonalEdgeStyle;rounded=0;orthogonalLoop=1;jettySize=auto;html=1;exitX=0;exitY=0.5;exitDx=0;exitDy=0;strokeColor=default;strokeWidth=2;align=center;verticalAlign=middle;fontFamily=Helvetica;fontSize=11;fontColor=default;labelBackgroundColor=default;endArrow=none;startArrow=classic;startFill=1;endFill=0;" parent="P4k7pQ2bikWhxSyixqC_-78" source="P4k7pQ2bikWhxSyixqC_-97" target="P4k7pQ2bikWhxSyixqC_-77" edge="1">
          <mxGeometry relative="1" as="geometry" />
        </mxCell>
        <mxCell id="P4k7pQ2bikWhxSyixqC_-102" value="&lt;font style=&quot;font-size: 14px;&quot;&gt;Vulnerable Contract&lt;/font&gt;" style="swimlane;html=1;childLayout=stackLayout;startSize=20;rounded=0;shadow=0;labelBackgroundColor=none;strokeWidth=1;fontFamily=Verdana;fontSize=14;align=center;swimlaneFillColor=#FFE6CC;" parent="1" vertex="1">
          <mxGeometry x="280" y="70" width="530" height="210" as="geometry">
            <mxRectangle x="20" y="20" width="60" height="20" as="alternateBounds" />
          </mxGeometry>
        </mxCell>
        <mxCell id="P4k7pQ2bikWhxSyixqC_-103" style="edgeStyle=orthogonalEdgeStyle;rounded=1;html=1;labelBackgroundColor=none;startArrow=none;startFill=0;startSize=5;endArrow=classicThin;endFill=1;endSize=5;jettySize=auto;orthogonalLoop=1;strokeWidth=1;fontFamily=Verdana;fontSize=8" parent="P4k7pQ2bikWhxSyixqC_-102" edge="1">
          <mxGeometry relative="1" as="geometry">
            <Array as="points">
              <mxPoint x="660" y="610" />
              <mxPoint x="660" y="550" />
              <mxPoint x="400" y="550" />
            </Array>
            <mxPoint x="690" y="610" as="sourcePoint" />
          </mxGeometry>
        </mxCell>
        <mxCell id="P4k7pQ2bikWhxSyixqC_-104" style="edgeStyle=orthogonalEdgeStyle;rounded=1;html=1;labelBackgroundColor=none;startArrow=none;startFill=0;startSize=5;endArrow=classicThin;endFill=1;endSize=5;jettySize=auto;orthogonalLoop=1;strokeColor=#000000;strokeWidth=1;fontFamily=Verdana;fontSize=8;fontColor=#000000;" parent="P4k7pQ2bikWhxSyixqC_-102" edge="1">
          <mxGeometry relative="1" as="geometry">
            <mxPoint x="690" y="610" as="sourcePoint" />
          </mxGeometry>
        </mxCell>
        <mxCell id="P4k7pQ2bikWhxSyixqC_-105" style="edgeStyle=orthogonalEdgeStyle;rounded=1;html=1;labelBackgroundColor=none;startArrow=none;startFill=0;startSize=5;endArrow=classicThin;endFill=1;endSize=5;jettySize=auto;orthogonalLoop=1;strokeWidth=1;fontFamily=Verdana;fontSize=8" parent="P4k7pQ2bikWhxSyixqC_-102" edge="1">
          <mxGeometry relative="1" as="geometry">
            <Array as="points">
              <mxPoint x="80" y="650" />
              <mxPoint x="490" y="650" />
              <mxPoint x="490" y="610" />
            </Array>
            <mxPoint x="530" y="610" as="targetPoint" />
          </mxGeometry>
        </mxCell>
        <mxCell id="P4k7pQ2bikWhxSyixqC_-106" style="edgeStyle=orthogonalEdgeStyle;rounded=1;html=1;labelBackgroundColor=none;startArrow=none;startFill=0;startSize=5;endArrow=classicThin;endFill=1;endSize=5;jettySize=auto;orthogonalLoop=1;strokeWidth=1;fontFamily=Verdana;fontSize=8" parent="P4k7pQ2bikWhxSyixqC_-102" edge="1">
          <mxGeometry relative="1" as="geometry">
            <mxPoint x="530" y="610" as="targetPoint" />
          </mxGeometry>
        </mxCell>
        <mxCell id="P4k7pQ2bikWhxSyixqC_-107" value="&lt;font style=&quot;font-size: 14px;&quot;&gt;Logic&lt;/font&gt;" style="swimlane;html=1;startSize=20;fillColor=#FFE6CC;strokeColor=#d79b00;fontSize=12;" parent="P4k7pQ2bikWhxSyixqC_-102" vertex="1">
          <mxGeometry y="20" width="240" height="190" as="geometry" />
        </mxCell>
        <mxCell id="P4k7pQ2bikWhxSyixqC_-108" value="deposit()" style="swimlane;fontStyle=1;childLayout=stackLayout;horizontal=1;startSize=30;fillColor=#ffffff;horizontalStack=0;resizeParent=1;resizeParentMax=0;resizeLast=0;collapsible=0;marginBottom=0;swimlaneFillColor=#ffffff;fontSize=14;" parent="P4k7pQ2bikWhxSyixqC_-107" vertex="1">
          <mxGeometry x="25" y="48" width="198" height="80" as="geometry" />
        </mxCell>
        <mxCell id="P4k7pQ2bikWhxSyixqC_-109" value="&lt;div&gt;&lt;font face=&quot;Verdana&quot;&gt;&lt;span style=&quot;font-size: 14px;&quot;&gt;Update Attacker Contract&lt;/span&gt;&lt;/font&gt;&lt;/div&gt;&lt;div&gt;&lt;font face=&quot;Verdana&quot;&gt;&lt;span style=&quot;font-size: 14px;&quot;&gt;&amp;nbsp;Balance to 1 eth&lt;/span&gt;&lt;/font&gt;&lt;/div&gt;" style="text;html=1;align=center;verticalAlign=middle;resizable=0;points=[];autosize=1;strokeColor=none;fillColor=none;" parent="P4k7pQ2bikWhxSyixqC_-108" vertex="1">
          <mxGeometry y="30" width="198" height="50" as="geometry" />
        </mxCell>
        <mxCell id="CfqDg3g44KLY0-B5oiju-24" value="1" style="text;html=1;resizable=0;autosize=1;align=center;verticalAlign=middle;points=[];fillColor=#ffff88;strokeColor=default;rounded=0;labelBackgroundColor=#FFFF00;labelBorderColor=none;fontSize=14;spacing=2;labelPadding=0;perimeterSpacing=2;" parent="P4k7pQ2bikWhxSyixqC_-107" vertex="1">
          <mxGeometry x="5" y="30" width="30" height="30" as="geometry" />
        </mxCell>
        <mxCell id="P4k7pQ2bikWhxSyixqC_-110" value="State" style="swimlane;html=1;startSize=20;fillColor=#FFE6CC;strokeColor=#d79b00;fontSize=14;" parent="P4k7pQ2bikWhxSyixqC_-102" vertex="1">
          <mxGeometry x="240" y="20" width="290" height="190" as="geometry" />
        </mxCell>
        <mxCell id="P4k7pQ2bikWhxSyixqC_-111" value="Balances" style="shape=table;startSize=30;container=1;collapsible=0;childLayout=tableLayout;fontStyle=1;align=center;fillStyle=solid;fontSize=14;strokeWidth=1;numbered=0;labelBorderColor=none;" parent="P4k7pQ2bikWhxSyixqC_-110" vertex="1">
          <mxGeometry x="20" y="50" width="250" height="106" as="geometry" />
        </mxCell>
        <mxCell id="P4k7pQ2bikWhxSyixqC_-112" value="" style="shape=tableRow;horizontal=0;startSize=0;swimlaneHead=0;swimlaneBody=0;top=0;left=0;bottom=0;right=0;collapsible=0;dropTarget=0;fillColor=none;points=[[0,0.5],[1,0.5]];portConstraint=eastwest;fillStyle=solid;fontSize=14;" parent="P4k7pQ2bikWhxSyixqC_-111" vertex="1">
          <mxGeometry y="30" width="250" height="30" as="geometry" />
        </mxCell>
        <mxCell id="P4k7pQ2bikWhxSyixqC_-113" value="Account" style="shape=partialRectangle;html=1;whiteSpace=wrap;connectable=0;top=1;left=1;bottom=1;right=1;overflow=hidden;fillStyle=solid;fontSize=14;strokeWidth=1;perimeterSpacing=2;labelBorderColor=none;fillColor=default;gradientColor=none;strokeColor=default;autosize=1;enumerate=0;enumerateValue=3;container=0;" parent="P4k7pQ2bikWhxSyixqC_-112" vertex="1">
          <mxGeometry width="122" height="30" as="geometry">
            <mxRectangle width="122" height="30" as="alternateBounds" />
          </mxGeometry>
        </mxCell>
        <mxCell id="P4k7pQ2bikWhxSyixqC_-114" value="Balance" style="shape=partialRectangle;html=1;whiteSpace=wrap;connectable=0;top=1;left=1;bottom=1;right=1;overflow=hidden;fillStyle=solid;fontSize=14;strokeWidth=1;" parent="P4k7pQ2bikWhxSyixqC_-112" vertex="1">
          <mxGeometry x="122" width="128" height="30" as="geometry">
            <mxRectangle width="128" height="30" as="alternateBounds" />
          </mxGeometry>
        </mxCell>
        <mxCell id="P4k7pQ2bikWhxSyixqC_-115" value="" style="shape=tableRow;horizontal=0;startSize=0;swimlaneHead=0;swimlaneBody=0;top=0;left=0;bottom=0;right=0;collapsible=0;dropTarget=0;fillColor=none;points=[[0,0.5],[1,0.5]];portConstraint=eastwest;fillStyle=solid;fontSize=14;" parent="P4k7pQ2bikWhxSyixqC_-111" vertex="1">
          <mxGeometry y="60" width="250" height="46" as="geometry" />
        </mxCell>
        <mxCell id="P4k7pQ2bikWhxSyixqC_-116" value="Attacker Contract" style="shape=partialRectangle;html=1;whiteSpace=wrap;connectable=0;top=1;left=1;bottom=1;right=1;overflow=hidden;fillStyle=solid;fontSize=14;strokeWidth=1;fillColor=#fad9d5;strokeColor=default;" parent="P4k7pQ2bikWhxSyixqC_-115" vertex="1">
          <mxGeometry width="122" height="46" as="geometry">
            <mxRectangle width="122" height="46" as="alternateBounds" />
          </mxGeometry>
        </mxCell>
        <mxCell id="P4k7pQ2bikWhxSyixqC_-117" value="1 eth" style="shape=partialRectangle;html=1;whiteSpace=wrap;connectable=0;top=1;left=1;bottom=1;right=1;overflow=hidden;fillStyle=solid;fontSize=14;strokeWidth=1;fillColor=#fad9d5;strokeColor=default;" parent="P4k7pQ2bikWhxSyixqC_-115" vertex="1">
          <mxGeometry x="122" width="128" height="46" as="geometry">
            <mxRectangle width="128" height="46" as="alternateBounds" />
          </mxGeometry>
        </mxCell>
        <mxCell id="P4k7pQ2bikWhxSyixqC_-118" value="" style="shape=waypoint;sketch=0;size=6;pointerEvents=1;points=[];fillColor=default;resizable=0;rotatable=0;perimeter=centerPerimeter;snapToPoint=1;fontSize=14;fontFamily=Verdana;rounded=1;shadow=0;labelBackgroundColor=none;strokeWidth=1;" parent="P4k7pQ2bikWhxSyixqC_-115" vertex="1">
          <mxGeometry x="250" height="46" as="geometry">
            <mxRectangle width="NaN" height="46" as="alternateBounds" />
          </mxGeometry>
        </mxCell>
        <mxCell id="P4k7pQ2bikWhxSyixqC_-119" style="edgeStyle=orthogonalEdgeStyle;rounded=0;orthogonalLoop=1;jettySize=auto;html=1;exitX=0.99;exitY=0.588;exitDx=0;exitDy=0;strokeWidth=2;fontSize=14;startArrow=none;startFill=0;strokeColor=#000000;entryX=0;entryY=0.5;entryDx=0;entryDy=0;exitPerimeter=0;" parent="P4k7pQ2bikWhxSyixqC_-102" source="P4k7pQ2bikWhxSyixqC_-109" target="P4k7pQ2bikWhxSyixqC_-115" edge="1">
          <mxGeometry relative="1" as="geometry">
            <mxPoint x="230" y="122" as="targetPoint" />
            <mxPoint x="195" y="119.5" as="sourcePoint" />
          </mxGeometry>
        </mxCell>
        <mxCell id="P4k7pQ2bikWhxSyixqC_-73" style="edgeStyle=orthogonalEdgeStyle;rounded=0;orthogonalLoop=1;jettySize=auto;html=1;exitX=1;exitY=0.5;exitDx=0;exitDy=0;entryX=-0.005;entryY=0.34;entryDx=0;entryDy=0;entryPerimeter=0;strokeWidth=2;" parent="1" source="KpImWnztJVB6oVCbE7Il-58" target="P4k7pQ2bikWhxSyixqC_-109" edge="1">
          <mxGeometry relative="1" as="geometry">
            <mxPoint x="299.05999999999995" y="183.75" as="targetPoint" />
          </mxGeometry>
        </mxCell>
        <mxCell id="iBgU1Qxsx16q2TcyYU6U-59" value="&lt;font style=&quot;font-size: 16px;&quot;&gt;Red Arrows correspond to the &quot;Attack Loop&quot;&lt;/font&gt;" style="shape=callout;whiteSpace=wrap;html=1;perimeter=calloutPerimeter;direction=west;size=100;position=0.38;position2=0;fillColor=#ffff88;strokeColor=#36393d;" parent="1" vertex="1">
          <mxGeometry x="150" y="590" width="120" height="250" as="geometry" />
        </mxCell>
      </root>
    </mxGraphModel>
  </diagram>
</mxfile>
